<svg width="661" height="414" viewBox="0 0 661 414" fill="none" xmlns="http://www.w3.org/2000/svg">
<path d="M321.52 166.272V158.262H371.96V166.272L346.74 161.942L321.52 166.272Z" fill="black"/>
<path d="M196.41 411.74C192.99 411.74 190.46 408.84 190.46 404.86C190.46 400.88 192.98 397.98 196.41 397.98C199.05 397.98 201.26 399.69 202.1 402.39H204.07C203.14 398.62 200.18 396.24 196.44 396.24C191.88 396.24 188.55 399.87 188.55 404.89C188.55 409.91 191.89 413.57 196.44 413.57C200.18 413.57 203.14 411.13 204.07 407.36H202.1C201.26 410.06 199.05 411.74 196.41 411.74Z" fill="black"/>
<path d="M225.749 396.24C221.189 396.24 217.859 399.87 217.859 404.89C217.859 409.91 221.199 413.57 225.749 413.57C230.299 413.57 233.669 409.91 233.669 404.89C233.669 399.87 230.359 396.24 225.749 396.24ZM225.749 411.74C222.329 411.74 219.769 408.84 219.769 404.86C219.769 400.88 222.319 397.98 225.749 397.98C229.179 397.98 231.789 400.94 231.789 404.89C231.789 408.84 229.239 411.74 225.749 411.74Z" fill="black"/>
<path d="M259.55 396.59H248.26V413.19H250V405.67H259.55C262.1 405.67 263.76 403.93 263.76 401.17C263.76 398.41 262.11 396.59 259.55 396.59ZM259.55 404.08H250V398.19H259.55C261.06 398.19 262.02 399.38 262.02 401.21C262.02 403.04 261.09 404.08 259.55 404.08Z" fill="black"/>
<path d="M293.149 398.19V396.59H278.319V413.19H293.149V411.59H280.059V405.67H289.809V404.07H280.059V398.18H293.149V398.19Z" fill="black"/>
<path d="M321.47 396.59V410.63L309.86 396.59H308.03V413.19H309.77V399.12L321.35 413.19H323.21V396.59H321.47Z" fill="black"/>
<path d="M352.03 396.59V404.08H340.31V396.59H338.6V413.19H340.31V405.67H352.03V413.19H353.77V396.59H352.03Z" fill="black"/>
<path d="M376.78 396.48H374.75L367.67 413.19H369.47L371.38 408.63H380.26L382.23 413.19H384.09L376.78 396.48ZM371.93 407.04L375.73 397.81L379.79 407.04H371.93Z" fill="black"/>
<path d="M412.09 404.28H405.01V405.88H410.29C409.88 409.33 407.36 411.74 404.2 411.74C400.75 411.74 398.19 408.84 398.19 404.86C398.19 400.88 400.71 397.98 404.14 397.98C406 397.98 407.71 398.85 408.87 400.36L411.08 400.33C409.69 397.75 407.1 396.24 404.15 396.24C399.62 396.24 396.29 399.9 396.29 404.89C396.29 409.88 399.63 413.57 404.24 413.57C408.85 413.57 412.13 409.91 412.13 404.89L412.1 404.28H412.09Z" fill="black"/>
<path d="M441.51 398.19V396.59H426.71V413.19H441.51V411.59H428.42V405.67H438.17V404.07H428.42V398.18H441.51V398.19Z" fill="black"/>
<path d="M469.86 396.59V410.63L458.25 396.59H456.39V413.19H458.13V399.12L469.71 413.19H471.57V396.59H469.86Z" fill="black"/>
<path d="M0 351.03C3.93 350.94 5.96 350.06 5.96 348.42V287.73C5.96 286.08 4.17 285.22 0.48 285.22H0V284.25C2.26 284.34 8.34 284.45 12.99 284.45C17.64 284.45 22.88 284.25 26.34 284.25C45.17 284.25 56.02 290.44 56.02 301.38C56.02 313.19 43.38 322 26.34 322H13.7V348.42C13.7 350.06 15.73 350.93 19.66 351.03V352C15.85 351.8 13.58 351.61 9.77 351.61C5.96 351.61 3.81 351.8 0 352V351.03ZM26.34 320.55C37.78 320.55 47.68 311.74 47.68 301.57C47.68 291.99 38.98 285.7 25.63 285.7H17.05C14.78 285.7 13.71 286.57 13.71 288.41V320.55H26.35H26.34Z" fill="black"/>
<path d="M96.2596 284.061L129.04 347.071C130.35 349.681 133.21 351.031 137.5 351.031V352.001C132.97 351.801 130.47 351.611 125.94 351.611C121.41 351.611 118.91 351.801 114.38 352.001V351.031C118.91 351.031 121.17 350.161 121.17 348.521C121.17 348.031 121.05 347.551 120.69 347.071L111.03 328.581H73.0096L63.3496 347.071C62.9896 347.751 62.8696 348.321 62.8696 348.811C62.8696 350.261 64.2996 351.031 67.2796 351.031V352.001C64.4196 351.801 62.8696 351.611 60.0096 351.611C57.1496 351.611 55.9596 351.801 53.0996 352.001V351.031C57.2696 351.031 60.1296 349.671 61.4396 347.071L94.3396 284.061H96.2596ZM110.33 327.131L91.9696 292.191L73.7296 327.131H110.33Z" fill="black"/>
<path d="M295.64 285.22C291.47 285.22 288.01 286.58 285.51 289.18L265.96 309.9L294.92 347.07C296.95 349.68 299.93 350.94 303.98 350.94H304.34V352C299.93 351.8 297.42 351.61 293.01 351.61C288.6 351.61 286.1 351.8 281.69 352V351.03C284.91 351.03 286.58 350.35 286.58 349.1C286.58 348.61 286.22 347.93 285.63 347.07L267.03 323.16C263.57 318.71 260.35 317.16 252.96 316.87V348.52C252.96 350.17 254.75 351.03 258.44 351.03H258.92V352C255.11 351.8 252.96 351.61 249.14 351.61C245.32 351.61 243.06 351.8 239.25 352V351.03H239.73C243.42 351.03 245.21 350.16 245.21 348.52V287.73C245.21 286.08 243.42 285.22 239.73 285.22H239.25V284.25C243.06 284.45 245.33 284.64 249.14 284.64C252.95 284.64 255.1 284.45 258.92 284.25V285.22H258.44C254.75 285.22 252.96 286.09 252.96 287.73V315.03C257.25 314.45 261.19 312.41 264.17 309.32L283.24 289.18C284.07 288.31 284.55 287.54 284.55 286.86C284.55 285.8 283 285.21 280.02 285.21V284.24C283 284.44 284.79 284.63 287.77 284.63C289.32 284.63 290.51 284.54 291.7 284.54L295.64 284.25V285.22Z" fill="black"/>
<path d="M412.2 335.26C411.72 341.27 411.72 346.01 412.2 352.01H404.09L390.03 351.81H381.93C370.13 351.81 363.45 352.01 354.39 352.01V351.04C358.32 350.95 360.35 350.07 360.35 348.43V287.74C360.35 286.09 358.56 285.23 354.87 285.23H354.39V284.26C358.2 284.46 360.47 284.65 364.28 284.65C368.09 284.65 370.24 284.46 374.06 284.26V285.23H373.58C369.89 285.23 368.1 286.1 368.1 287.74V347.94C368.1 349.68 370.13 350.56 374.06 350.56H389.2C403.38 350.56 410.42 345.43 410.42 335.26H412.21H412.2Z" fill="black"/>
<path d="M465.34 284.061L498.12 347.071C499.43 349.681 502.29 351.031 506.58 351.031V352.001C502.05 351.801 499.55 351.611 495.02 351.611C490.49 351.611 487.99 351.801 483.46 352.001V351.031C487.99 351.031 490.25 350.161 490.25 348.521C490.25 348.031 490.13 347.551 489.77 347.071L480.11 328.581H442.09L432.43 347.071C432.07 347.751 431.95 348.321 431.95 348.811C431.95 350.261 433.38 351.031 436.36 351.031V352.001C433.5 351.801 431.95 351.611 429.09 351.611C426.23 351.611 425.04 351.801 422.18 352.001V351.031C426.35 351.031 429.21 349.671 430.52 347.071L463.42 284.061H465.34ZM479.41 327.131L461.05 292.191L442.81 327.131H479.41Z" fill="black"/>
<path d="M524.32 287.06V348.43C524.32 350.07 526.35 350.94 530.28 351.04V352.01C527.54 351.81 526.11 351.62 523.49 351.62C520.87 351.62 519.32 351.81 516.58 352.01V351.04C520.51 350.95 522.54 350.07 522.54 348.43V287.74C522.54 286.09 520.75 285.23 517.06 285.23H516.58V284.26C519.56 284.46 521.23 284.65 524.09 284.65C526.95 284.65 528.38 284.46 531.36 284.26L577.01 340.4V287.75C577.01 286.1 575.22 285.24 571.53 285.24H571.05V284.27C573.8 284.47 575.22 284.66 577.84 284.66C580.46 284.66 582.01 284.47 584.76 284.27V285.24H584.28C580.58 285.24 578.8 286.11 578.8 287.75V352.02H577.13L524.32 287.07V287.06Z" fill="black"/>
<path d="M660.13 335.26C659.9 338.55 659.65 340.39 659.65 343.68C659.65 346.97 659.89 348.71 660.13 352H652.03L637.97 351.8H629.87C618.07 351.8 611.39 352 602.33 352V351.03C606.26 350.94 608.29 350.06 608.29 348.42V287.73C608.29 286.08 606.5 285.22 602.81 285.22H602.33V284.25C610.91 284.25 617.34 284.45 628.43 284.45C639.52 284.45 645.96 284.25 657.76 284.25C657.52 287.16 657.28 288.7 657.28 291.6C657.28 294.5 657.51 296.16 657.76 299.06H656.21C656.21 290.15 649.17 285.7 634.99 285.7H621.99C618.06 285.7 616.03 287.35 616.03 290.54V316H634.63C636.66 316 637.73 313.78 637.73 309.42V308.94H639.28C639.04 311.94 638.8 313.68 638.8 316.68C638.8 319.68 639.03 321.42 639.28 324.52H637.73V324.04C637.73 319.68 636.66 317.46 634.63 317.46H616.03V347.94C616.03 349.68 617.94 350.56 621.87 350.56H637.13C651.31 350.56 658.35 345.43 658.35 335.26H660.14H660.13Z" fill="black"/>
<path d="M220.43 358.58C217.21 356.27 214.48 353.49 212.47 350.33C206.74 341.32 205.75 330.55 197.44 322.59C196.12 321.33 191.83 317.67 189.42 318.15C201.35 315.73 209.6 308.71 209.6 299.99C209.6 289.98 198.87 284.25 179.88 284.25C176.4 284.25 171.33 284.41 166.56 284.41C161.79 284.41 155.83 284.33 153.54 284.25V285.22H154.04C157.72 285.22 159.51 286.11 159.51 287.72V348.41C159.51 350.02 157.42 350.91 153.55 350.99V351.96C157.33 351.8 159.51 351.64 163.29 351.64C167.07 351.64 169.35 351.8 173.23 351.96V350.99C169.25 350.91 167.27 350.02 167.27 348.41V319.12H178.8C187.28 319.12 195.98 334.15 198.74 339.61C202.52 347.07 205.5 355.42 212.64 361.46C220.02 367.7 231.42 370.2 241.82 369.93C244.95 369.85 248.07 369.5 251.11 368.87C254.54 368.16 257.89 367.18 261.08 365.95C262.03 365.58 263.91 364.31 264.96 364.26C262.98 364.35 260.81 365.1 258.84 365.4C256.52 365.75 254.17 366.01 251.82 366.15C247.26 366.43 242.66 366.29 238.16 365.6C231.6 364.59 225.43 362.15 220.45 358.57H220.43V358.58ZM179.87 317.67H167.25V288.38C167.25 286.6 168.34 285.72 170.53 285.72H179.18C192.5 285.72 201.24 291.45 201.24 300.17C201.24 309.53 191.3 317.68 179.87 317.68V317.67Z" fill="black"/>
<path d="M330.16 243.351C316.01 244.431 301.58 240.401 289 233.341C276.49 226.011 265.94 215.591 257.56 203.781C249.07 191.981 243.18 178.501 239.04 164.641C235.04 150.711 233.13 136.231 232.94 121.761C233.14 107.291 235.03 92.8208 239.05 78.8908C243.18 65.0308 249.08 51.5608 257.57 39.7608C265.95 27.9508 276.49 17.5308 289 10.2008C301.57 3.13082 316.01 -0.899175 330.16 0.170825V0.750825C316.16 0.820825 302.38 5.27082 290.64 12.7808C278.85 20.2708 269.01 30.6108 261.32 42.2408C245.91 65.6508 238.89 93.8908 238.74 121.751C238.89 149.621 245.91 177.851 261.32 201.261C269.01 212.891 278.84 223.231 290.63 230.721C302.37 238.231 316.15 242.681 330.15 242.751V243.351H330.16Z" fill="black"/>
<path d="M329.971 0.181544C344.121 -0.898456 358.551 3.13154 371.131 10.1915C383.641 17.5215 394.191 27.9415 402.571 39.7515C411.061 51.5515 416.951 65.0315 421.091 78.8915C425.091 92.8215 427.001 107.302 427.191 121.772C426.991 136.242 425.101 150.712 421.081 164.642C416.951 178.502 411.051 191.972 402.561 203.772C394.181 215.582 383.641 226.002 371.131 233.332C358.561 240.402 344.121 244.432 329.971 243.362V242.782C343.971 242.712 357.751 238.262 369.491 230.752C381.281 223.262 391.121 212.922 398.811 201.292C414.221 177.882 421.241 149.642 421.391 121.782C421.241 93.9115 414.221 65.6815 398.811 42.2715C391.121 30.6415 381.291 20.3015 369.501 12.8115C357.761 5.30154 343.981 0.851544 329.981 0.781544V0.181544H329.971Z" fill="black"/>
<path d="M327.78 74.1901C325.04 73.7901 322.05 73.6101 318.87 73.5801H318.47C314.51 73.5801 308.59 73.8501 303.1 73.8501C297.61 73.8501 290.75 73.7001 288.13 73.5801V74.9501H288.68C292.95 74.9501 294.99 76.1701 294.99 78.5201V172.27C294.99 174.59 292.67 175.84 288.13 175.99V177.36C292.52 177.05 294.99 176.81 299.38 176.81C303.77 176.81 306.39 177.05 310.79 177.36V175.99C306.28 175.84 303.93 174.59 303.93 172.27V127.13H318.87C321.98 127.1 324.97 126.76 327.78 126.12C342.54 122.86 352.67 111.85 352.67 97.8801C352.67 84.7401 343.7 76.4101 327.78 74.1801V74.1901ZM327.78 122.93C325 124.24 321.99 125 318.87 125.06H303.93V79.4701C303.93 76.8801 305.15 75.6301 307.77 75.6301H317.65C318.05 75.6301 318.47 75.6301 318.87 75.6601C322.1 75.7501 325.09 76.2701 327.78 77.1501C337.3 80.2001 343.06 87.8201 343.06 98.1301C343.06 108.99 336.59 118.75 327.78 122.92V122.93Z" fill="black"/>
<path d="M378.58 124.641H376.51C376.51 139.071 368.43 146.351 352.08 146.351H334.64C330.13 146.351 327.78 145.101 327.78 142.631V57.2408C327.78 54.9208 329.85 53.6708 334.09 53.6708H334.64V52.3008C330.25 52.5708 327.78 52.8508 323.39 52.8508C319 52.8508 316.41 52.5808 312.01 52.3008V53.6708H312.56C316.8 53.6708 318.87 54.9208 318.87 57.2408V143.331C318.87 145.651 316.52 146.901 312.01 147.021V148.391C322.44 148.391 330.13 148.121 343.7 148.121H353.03L369.25 148.391H378.58C378.03 139.881 378.03 133.171 378.58 124.631V124.641Z" fill="black"/>
</svg>
