<svg width="662" height="100" viewBox="0 0 662 100" fill="none" xmlns="http://www.w3.org/2000/svg">
<path d="M41.8392 0C24.5601 0 15.3084 2.52295 8.84665 9.00397C1.50373 16.3653 0 27.4562 0 41.8408C0 58.9902 2.4853 68.1498 8.86757 74.5196C15.3084 80.942 25.1668 83.68 41.8392 83.68C56.2832 83.68 67.4636 82.1219 75.0752 74.5087C82.3093 67.277 83.6783 57.4497 83.6783 41.8417C83.6783 26.8713 82.2407 16.1561 75.0752 8.99309C68.6837 2.60579 59.0546 0 41.8392 0ZM66.1465 54.582C64.4671 55.8623 62.5366 56.6078 60.5124 57.1342C58.2672 57.7183 55.9769 58.0388 53.6723 58.2731C50.6975 58.5743 47.7143 58.7241 44.7244 58.7475C44.655 58.7484 40.7547 58.7484 40.666 58.7475C38.8292 58.7291 36.9941 58.6823 35.1607 58.5743C34.1891 58.5166 29.9599 58.2086 28.8194 58.0806C27.2822 57.9074 25.7483 57.7082 24.2337 57.3819C22.2522 56.9551 20.4003 56.2079 18.6991 55.1066C17.1393 54.0974 15.8239 52.8464 14.9595 51.172C13.9896 49.2934 13.9344 47.3185 14.3804 45.3069C15.2766 41.2685 18.5828 39.1078 21.7535 38.7095C22.5467 38.61 23.3317 38.6585 24.1166 38.7798C24.1258 38.7907 24.1358 38.8016 24.145 38.8125C24.15 38.8066 24.1609 38.7974 24.1601 38.7949C24.1526 38.7832 24.1425 38.7731 24.1333 38.7622C23.8931 38.1656 23.7082 37.5564 23.6421 36.9112C23.4538 35.0711 23.745 33.2963 24.4304 31.5959C25.8864 27.9801 28.488 25.7391 32.3858 25.0898C32.7214 25.0337 34.154 24.9132 35.2209 24.9961C36.3698 25.0613 37.461 25.3684 38.507 25.8303C40.6283 26.7667 42.3981 28.1315 43.6383 30.124C44.0182 30.734 44.2751 31.3934 44.3947 32.1582C45.4709 30.7223 46.8282 29.7733 48.5478 29.3851C50.2632 28.9976 51.895 29.2403 53.4188 30.1089C54.9301 30.97 55.9853 32.236 56.5585 33.8795C57.125 35.5037 57.0815 37.1355 56.4815 38.8007C57.0346 38.6284 57.5426 38.4861 58.0647 38.3966C61.2412 37.851 64.5474 38.5271 66.6687 40.6124C68.2854 42.2015 69.169 44.2374 69.4703 46.506C69.9113 49.8206 68.8243 52.541 66.1465 54.582Z" fill="#059ABE"/>
<path d="M167.497 13.1117L174.994 0.977001C175.054 0.88988 175.096 0.771644 175.096 0.659631C175.096 0.292478 174.772 0 174.377 0H158.428C158.17 0 157.924 0.130681 157.804 0.342261L154.661 5.60687C154.163 6.45319 153.131 6.85146 152.214 6.54653C148.843 5.46374 145.268 4.97213 140.631 4.97213C122.607 4.97213 103.203 16.5095 103.203 41.8244C103.203 52.8452 106.904 62.08 113.91 68.5457C114.653 69.2302 114.809 70.3379 114.293 71.1904L107.114 82.8709C107.06 82.9705 107.03 83.0825 107.03 83.1945V83.4247C107.03 83.7919 107.342 84.0781 107.725 84.0844C111.252 84.1279 114.893 84.103 118.408 84.0906C120.148 84.0781 121.875 84.0719 123.596 84.0657C123.848 84.0657 124.088 83.935 124.214 83.7359L127.603 78.2535C128.095 77.4569 129.043 77.0898 129.96 77.3325C133.169 78.2099 136.786 78.6704 140.421 78.6704C158.41 78.6704 177.759 67.1331 177.759 41.8182C177.759 31.04 174.419 22.2595 167.827 15.7067C167.131 15.0035 166.993 13.9394 167.509 13.1055L167.497 13.1117ZM125.132 54.7556C124.874 55.1664 124.298 55.1913 124.01 54.7992C121.215 51.0468 119.74 46.5663 119.74 41.8306C119.74 30.063 129.043 20.4921 140.469 20.4921C141.303 20.4921 142.137 20.5419 142.976 20.6415C143.708 20.7411 144.326 21.1891 144.632 21.8674C144.92 22.5022 144.866 23.2365 144.5 23.8276L125.132 54.7494V54.7556ZM140.463 63.1815C140.055 63.1815 139.653 63.1691 139.246 63.1379C138.49 63.0882 137.836 62.6526 137.494 61.9743C137.182 61.3209 137.224 60.5617 137.608 59.9394L156.454 29.8328C156.724 29.4034 157.324 29.3972 157.6 29.8203C159.951 33.3674 161.193 37.5243 161.193 41.8306C161.193 53.5982 151.89 63.1815 140.457 63.1815H140.463Z" fill="#059ABE"/>
<path d="M215.067 24.1293C210.131 24.1293 205.458 26.2202 202.567 29.7237C202.123 30.2651 201.452 30.5327 200.75 30.4456L200.144 30.3709V25.8966C200.144 25.0752 199.502 24.4093 198.71 24.4093H184.909C184.117 24.4093 183.475 25.0752 183.475 25.8966V75.5183C183.475 76.3397 184.117 77.0056 184.909 77.0056H198.71C199.502 77.0056 200.144 76.3397 200.144 75.5183V47.6458C200.144 40.6512 204.96 37.4588 209.435 37.4588C213.574 37.5708 217.682 40.6636 217.563 47.3346V75.5183C217.563 76.3397 218.204 77.0056 218.996 77.0056H232.9C233.691 77.0056 234.333 76.3397 234.333 75.5183V47.3159C234.519 39.4813 232.666 33.2708 228.971 29.3441C225.72 25.8779 221.041 24.123 215.061 24.123L215.067 24.1293Z" fill="#059ABE"/>
<path d="M264.638 45.1706H264.62C264.392 45.1395 264.158 45.1146 263.906 45.0835C261.441 44.7848 257.716 44.3367 258.076 40.6465C258.07 38.3191 260.511 36.6141 264.146 36.4709C266.779 36.3527 269.707 37.4542 270.81 39.6633C271.056 40.1549 271.572 40.4412 272.112 40.4412H284.186C285.05 40.4412 285.71 39.6509 285.614 38.761C285.296 35.718 284.054 33.011 281.919 30.6836C277.96 26.3836 271.17 23.8135 263.75 23.8135C252.732 23.8135 241.611 29.1777 241.611 41.163C241.611 53.1484 252.696 55.2829 264.044 56.6395C266.672 56.9569 270.282 57.38 270.282 61.4374C270.282 64.6609 266.941 66.341 263.642 66.341C260.343 66.341 257.998 64.9035 257.254 62.5699C257.069 61.9788 256.511 61.5992 255.911 61.5992H242.343C241.485 61.5992 240.808 62.3708 240.91 63.2545C242.103 73.5472 249.817 78.5691 264.374 78.5691C279.795 78.5691 286.927 69.9566 287.155 61.4125C287.449 48.6243 277.57 46.5583 264.632 45.1768L264.638 45.1706Z" fill="#059ABE"/>
<path d="M368.844 23.9105C350.55 23.9105 342.363 37.5014 342.363 50.9554C342.363 67.6578 353.729 78.4421 371.31 78.4421C377.488 78.3426 383.924 76.8989 390.024 74.2354C390.63 73.9741 390.977 73.3082 390.875 72.6361L389.502 63.4698C389.364 62.5612 388.482 61.9949 387.642 62.2812C383.408 63.7311 377.224 64.7828 372.473 64.7828C364.184 64.7828 359.799 61.8082 359.043 55.6724L358.941 54.8696H389.79C390.462 54.8696 391.049 54.3905 391.187 53.7122C393.035 44.8196 391.985 37.3956 388.116 32.1497C384.242 26.91 377.584 24.0536 368.838 23.9043L368.844 23.9105ZM377.086 44.4338L377.014 45.0685H358.995L359.157 44.2222C360.075 39.3496 364.682 36.7982 368.754 36.7982C371.609 36.7982 374.207 37.825 375.694 39.555C376.81 40.8618 377.296 42.542 377.092 44.4338H377.086Z" fill="#059ABE"/>
<path d="M420.446 45.1706H420.428C420.206 45.1395 419.966 45.1146 419.726 45.0835C417.255 44.7848 413.53 44.3367 413.89 40.6465C413.884 38.3192 416.325 36.6141 419.972 36.4709C422.611 36.3652 425.532 37.4604 426.63 39.6633C426.876 40.1549 427.392 40.4412 427.932 40.4412H440.006C440.87 40.4412 441.529 39.6509 441.433 38.761C441.116 35.718 439.874 33.011 437.739 30.6836C433.786 26.3836 426.984 23.8135 419.57 23.8135C408.558 23.8135 397.431 29.1777 397.431 41.163C397.431 53.1484 408.516 55.2829 419.864 56.6395C422.491 56.9569 426.096 57.38 426.096 61.4374C426.096 64.6609 422.761 66.3411 419.462 66.3411C416.163 66.3411 413.818 64.9036 413.08 62.5762C412.894 61.985 412.337 61.6054 411.737 61.6054H398.169C397.311 61.6054 396.634 62.377 396.736 63.2607C397.935 73.5535 405.643 78.5754 420.2 78.5754C435.621 78.5754 442.759 69.9628 442.981 61.4187C443.275 48.6306 433.402 46.5646 420.458 45.1831L420.446 45.1706Z" fill="#059ABE"/>
<path d="M555.182 26.4433C555.182 25.8334 554.708 25.3418 554.12 25.3418H538.951C538.639 25.3418 538.363 25.5596 538.261 25.8707L528.988 55.8093C528.856 56.2325 528.478 56.525 528.047 56.525C527.615 56.525 527.261 56.2574 527.117 55.8467L516.59 25.8459C516.488 25.5472 516.218 25.3418 515.912 25.3418H499.502C499.094 25.3418 498.704 25.5223 498.434 25.8396L498.26 26.0388V26.4121C498.26 26.5179 498.278 26.6299 498.332 26.7357L519.757 76.9362C519.967 77.4091 519.991 77.9692 519.841 78.4857L518.617 82.3688C518.414 83.0098 514.893 92.6865 512.991 97.7955C512.625 98.7725 513.321 99.8242 514.329 99.8242H527.003C527.597 99.8242 528.13 99.4446 528.346 98.8658C529.084 96.8558 530.476 93.0474 531.657 89.8052C532.863 86.4946 533.913 83.6321 533.991 83.4267L555.134 26.7233C555.17 26.6362 555.182 26.5428 555.182 26.4495V26.4433Z" fill="#059ABE"/>
<path d="M581.174 23.9105C562.88 23.9105 554.693 37.5014 554.693 50.9554C554.693 67.6578 566.053 78.4421 583.622 78.4421C589.812 78.3426 596.248 76.8989 602.336 74.2354C602.941 73.9741 603.289 73.3082 603.187 72.6361L601.826 63.4698C601.694 62.5612 600.806 61.9949 599.966 62.2812C595.726 63.7311 589.542 64.7828 584.791 64.7828C576.508 64.7828 572.117 61.8082 571.361 55.6724L571.265 54.8696H602.114C602.786 54.8696 603.373 54.3905 603.517 53.7122C605.359 44.8196 604.315 37.3956 600.446 32.1497C596.571 26.91 589.914 24.0536 581.168 23.9043L581.174 23.9105ZM589.41 44.4338L589.344 45.0685H571.319L571.481 44.2222C572.405 39.3496 577.012 36.7982 581.078 36.7982C583.939 36.7982 586.537 37.825 588.024 39.555C589.14 40.8618 589.62 42.542 589.416 44.4338H589.41Z" fill="#059ABE"/>
<path d="M655.718 29.349C652.461 25.8828 647.782 24.1279 641.808 24.1279C636.968 24.1279 632.385 26.1379 629.488 29.5108C628.924 30.1642 628.109 30.5189 627.269 30.4193C627.053 30.3944 626.885 30.2015 626.885 29.9775V25.9015C626.885 25.08 626.243 24.4142 625.445 24.4142H611.644C610.852 24.4142 610.21 25.08 610.21 25.9015V75.5232C610.21 76.3446 610.852 77.0105 611.644 77.0105H625.445C626.237 77.0105 626.885 76.3446 626.885 75.5232V47.6506C626.885 40.6561 631.695 37.4637 636.176 37.4637C640.309 37.5757 644.418 40.6685 644.298 47.3395V75.5232C644.298 76.3446 644.939 77.0105 645.731 77.0105H659.641C660.432 77.0105 661.074 76.3446 661.074 75.5232V47.3208C661.26 39.4861 659.407 33.2757 655.712 29.349H655.718Z" fill="#059ABE"/>
<path d="M326.548 45.5911C326.266 45.0373 326.344 44.359 326.746 43.8922L340.164 28.3224C340.992 27.3641 340.332 25.8395 339.09 25.8395H324.473C324.065 25.8395 323.681 26.02 323.405 26.3311L311.889 39.5548C311.259 40.2767 310.101 39.8162 310.101 38.8392V9.84031C310.101 9.01888 309.46 8.35303 308.668 8.35303H294.974C294.182 8.35303 293.541 9.01888 293.541 9.84031V75.4114C293.541 76.2328 294.182 76.8987 294.974 76.8987H308.668C309.46 76.8987 310.101 76.2328 310.101 75.4114V63.7621C310.101 63.3949 310.233 63.0402 310.467 62.7664L313.916 58.7651C314.588 57.9872 315.806 58.149 316.267 59.0824L324.851 76.5067C324.977 76.7494 325.217 76.8987 325.487 76.8987H342.209V76.1271C342.209 75.9964 342.179 75.8719 342.119 75.7661L326.548 45.5849V45.5911Z" fill="#059ABE"/>
<path d="M480.811 45.5911C480.529 45.0373 480.607 44.359 481.009 43.8922L494.427 28.3224C495.255 27.3641 494.595 25.8395 493.353 25.8395H478.736C478.328 25.8395 477.944 26.02 477.668 26.3311L465.978 39.754C465.408 40.4074 464.364 39.9905 464.364 39.1068V9.84031C464.364 9.01888 463.723 8.35303 462.931 8.35303H448.517C448.116 8.35303 447.798 8.68907 447.798 9.09978V75.4177C447.798 76.2391 448.439 76.9049 449.231 76.9049H462.925C463.717 76.9049 464.358 76.2391 464.358 75.4177V63.7683C464.358 63.4012 464.49 63.0464 464.724 62.7726L468.173 58.7713C468.845 57.9934 470.063 58.1552 470.524 59.0887L479.108 76.5129C479.228 76.7556 479.474 76.9049 479.744 76.9049H496.466V76.1333C496.466 76.0026 496.43 75.8782 496.376 75.7724L480.805 45.5911H480.811Z" fill="#059ABE"/>
</svg>
